<mxfile host="app.diagrams.net" modified="2024-05-29T20:42:03.245Z" agent="Mozilla/5.0 (Windows NT 10.0; Win64; x64) AppleWebKit/537.36 (KHTML, like Gecko) Chrome/125.0.0.0 Safari/537.36" etag="EivAUy_1S95ScyodKkHr" version="24.4.10" type="github">
  <diagram name="Page-1" id="aGtIWoqIngweozj84-rB">
    <mxGraphModel dx="2082" dy="945" grid="0" gridSize="10" guides="1" tooltips="1" connect="1" arrows="1" fold="1" page="0" pageScale="1" pageWidth="827" pageHeight="1169" math="0" shadow="0">
      <root>
        <mxCell id="0" />
        <mxCell id="1" parent="0" />
        <mxCell id="-sJWIc0Cwtn1lKEgGwBn-1" value="&lt;p style=&quot;margin:0px;margin-top:4px;margin-left:10px;text-align:left;&quot;&gt;&lt;b&gt;bdd&lt;/b&gt;&amp;nbsp;Development view&lt;/p&gt;" style="html=1;shape=mxgraph.sysml.package;labelX=142.33;align=left;spacingLeft=10;html=1;overflow=fill;whiteSpace=wrap;recursiveResize=0;" vertex="1" parent="1">
          <mxGeometry x="-200" y="34" width="1603" height="580" as="geometry" />
        </mxCell>
        <mxCell id="aLUyHMG_e6lteH9gZZ4V-2" value="&amp;lt;&amp;lt; &lt;b&gt;system&amp;nbsp;&lt;/b&gt;&amp;gt;&amp;gt;&lt;div&gt;&lt;br&gt;&lt;b&gt;MyClinic&lt;/b&gt;&lt;/div&gt;" style="shape=rect;html=1;whiteSpace=wrap;align=center;verticalAlign=top;fillColor=#FFFFFF;" parent="1" vertex="1">
          <mxGeometry x="431" y="44" width="120" height="60" as="geometry" />
        </mxCell>
        <mxCell id="aLUyHMG_e6lteH9gZZ4V-3" value="" style="endArrow=diamondThin;endFill=1;endSize=24;html=1;rounded=0;exitX=0.5;exitY=0;exitDx=0;exitDy=0;edgeStyle=orthogonalEdgeStyle;" parent="1" source="aLUyHMG_e6lteH9gZZ4V-6" target="aLUyHMG_e6lteH9gZZ4V-2" edge="1">
          <mxGeometry width="160" relative="1" as="geometry">
            <mxPoint x="270" y="134" as="sourcePoint" />
            <mxPoint x="442" y="126" as="targetPoint" />
          </mxGeometry>
        </mxCell>
        <mxCell id="aLUyHMG_e6lteH9gZZ4V-4" value="&amp;lt;&amp;lt; &lt;b&gt;subsystem&amp;nbsp;&lt;/b&gt;&amp;gt;&amp;gt;&lt;div&gt;&lt;br&gt;&lt;/div&gt;&lt;div&gt;&lt;b&gt;Register patient&lt;/b&gt;&lt;/div&gt;" style="shape=rect;html=1;whiteSpace=wrap;align=center;verticalAlign=top;fillColor=#FFFFFF;" parent="1" vertex="1">
          <mxGeometry x="-130" y="170" width="120" height="60" as="geometry" />
        </mxCell>
        <mxCell id="aLUyHMG_e6lteH9gZZ4V-5" value="&amp;lt;&amp;lt; &lt;b&gt;subsystem&amp;nbsp;&lt;/b&gt;&amp;gt;&amp;gt;&lt;div&gt;&lt;br&gt;&lt;/div&gt;&lt;div&gt;&lt;b&gt;Schedule appointment&lt;/b&gt;&lt;/div&gt;" style="shape=rect;html=1;whiteSpace=wrap;align=center;verticalAlign=top;fillColor=#FFFFFF;" parent="1" vertex="1">
          <mxGeometry x="148" y="170" width="148" height="60" as="geometry" />
        </mxCell>
        <mxCell id="aLUyHMG_e6lteH9gZZ4V-6" value="&amp;lt;&amp;lt; &lt;b&gt;subsystem&amp;nbsp;&lt;/b&gt;&amp;gt;&amp;gt;&lt;div&gt;&lt;br&gt;&lt;/div&gt;&lt;div&gt;&lt;b&gt;Check-in&lt;/b&gt;&lt;/div&gt;" style="shape=rect;html=1;whiteSpace=wrap;align=center;verticalAlign=top;fillColor=#FFFFFF;" parent="1" vertex="1">
          <mxGeometry x="417" y="170" width="148" height="60" as="geometry" />
        </mxCell>
        <mxCell id="aLUyHMG_e6lteH9gZZ4V-7" value="&amp;lt;&amp;lt; &lt;b&gt;subsystem&amp;nbsp;&lt;/b&gt;&amp;gt;&amp;gt;&lt;div&gt;&lt;br&gt;&lt;/div&gt;&lt;div&gt;&lt;b&gt;List doctors&lt;/b&gt;&lt;/div&gt;" style="shape=rect;html=1;whiteSpace=wrap;align=center;verticalAlign=top;fillColor=#FFFFFF;" parent="1" vertex="1">
          <mxGeometry x="678" y="170" width="148" height="60" as="geometry" />
        </mxCell>
        <mxCell id="aLUyHMG_e6lteH9gZZ4V-8" value="&amp;lt;&amp;lt; &lt;b&gt;subsystem&amp;nbsp;&lt;/b&gt;&amp;gt;&amp;gt;&lt;div&gt;&lt;br&gt;&lt;/div&gt;&lt;div&gt;&lt;b&gt;List appointments&lt;/b&gt;&lt;/div&gt;" style="shape=rect;html=1;whiteSpace=wrap;align=center;verticalAlign=top;fillColor=#FFFFFF;" parent="1" vertex="1">
          <mxGeometry x="924" y="170" width="148" height="60" as="geometry" />
        </mxCell>
        <mxCell id="aLUyHMG_e6lteH9gZZ4V-9" value="&amp;lt;&amp;lt; &lt;b&gt;subsystem&amp;nbsp;&lt;/b&gt;&amp;gt;&amp;gt;&lt;div&gt;&lt;br&gt;&lt;/div&gt;&lt;div&gt;&lt;b&gt;Review doctor&lt;/b&gt;&lt;/div&gt;" style="shape=rect;html=1;whiteSpace=wrap;align=center;verticalAlign=top;fillColor=#FFFFFF;" parent="1" vertex="1">
          <mxGeometry x="1200" y="170" width="148" height="60" as="geometry" />
        </mxCell>
        <mxCell id="aLUyHMG_e6lteH9gZZ4V-10" value="" style="endArrow=diamondThin;endFill=1;endSize=24;html=1;rounded=0;entryX=0.5;entryY=1;entryDx=0;entryDy=0;edgeStyle=orthogonalEdgeStyle;exitX=0.5;exitY=0;exitDx=0;exitDy=0;" parent="1" source="aLUyHMG_e6lteH9gZZ4V-5" target="aLUyHMG_e6lteH9gZZ4V-2" edge="1">
          <mxGeometry width="160" relative="1" as="geometry">
            <mxPoint x="270" y="134" as="sourcePoint" />
            <mxPoint x="270" y="20" as="targetPoint" />
          </mxGeometry>
        </mxCell>
        <mxCell id="aLUyHMG_e6lteH9gZZ4V-11" value="" style="endArrow=diamondThin;endFill=1;endSize=24;html=1;rounded=0;entryX=0.5;entryY=1;entryDx=0;entryDy=0;exitX=0.5;exitY=0;exitDx=0;exitDy=0;edgeStyle=orthogonalEdgeStyle;" parent="1" source="aLUyHMG_e6lteH9gZZ4V-4" target="aLUyHMG_e6lteH9gZZ4V-2" edge="1">
          <mxGeometry width="160" relative="1" as="geometry">
            <mxPoint x="280" y="144" as="sourcePoint" />
            <mxPoint x="280" y="30" as="targetPoint" />
          </mxGeometry>
        </mxCell>
        <mxCell id="aLUyHMG_e6lteH9gZZ4V-12" value="&amp;lt;&amp;lt; &lt;b&gt;interface&amp;nbsp;&lt;/b&gt;&amp;gt;&amp;gt;&lt;div&gt;&lt;br&gt;&lt;/div&gt;&lt;div&gt;&lt;b&gt;Int Schedule Appointment&lt;/b&gt;&lt;/div&gt;" style="shape=rect;html=1;whiteSpace=wrap;align=center;verticalAlign=top;fillColor=#FFFFFF;" parent="1" vertex="1">
          <mxGeometry x="62" y="340" width="154" height="60" as="geometry" />
        </mxCell>
        <mxCell id="aLUyHMG_e6lteH9gZZ4V-13" value="" style="endArrow=diamondThin;endFill=1;endSize=24;html=1;rounded=0;entryX=0.5;entryY=1;entryDx=0;entryDy=0;exitX=0.5;exitY=0;exitDx=0;exitDy=0;edgeStyle=orthogonalEdgeStyle;" parent="1" source="aLUyHMG_e6lteH9gZZ4V-12" target="aLUyHMG_e6lteH9gZZ4V-5" edge="1">
          <mxGeometry width="160" relative="1" as="geometry">
            <mxPoint x="40" y="180" as="sourcePoint" />
            <mxPoint x="238" y="30" as="targetPoint" />
          </mxGeometry>
        </mxCell>
        <mxCell id="aLUyHMG_e6lteH9gZZ4V-14" value="&amp;lt;&amp;lt; &lt;b&gt;control&amp;nbsp;&lt;/b&gt;&amp;gt;&amp;gt;&lt;div&gt;&lt;br&gt;&lt;/div&gt;&lt;div&gt;&lt;b&gt;Appointments controller&lt;/b&gt;&lt;/div&gt;" style="shape=rect;html=1;whiteSpace=wrap;align=center;verticalAlign=top;fillColor=#FFFFFF;" parent="1" vertex="1">
          <mxGeometry x="227" y="340" width="146" height="60" as="geometry" />
        </mxCell>
        <mxCell id="aLUyHMG_e6lteH9gZZ4V-15" value="" style="endArrow=diamondThin;endFill=1;endSize=24;html=1;rounded=0;entryX=0.5;entryY=1;entryDx=0;entryDy=0;exitX=0.5;exitY=0;exitDx=0;exitDy=0;edgeStyle=orthogonalEdgeStyle;" parent="1" source="aLUyHMG_e6lteH9gZZ4V-14" target="aLUyHMG_e6lteH9gZZ4V-5" edge="1">
          <mxGeometry width="160" relative="1" as="geometry">
            <mxPoint x="94" y="354" as="sourcePoint" />
            <mxPoint x="238" y="240" as="targetPoint" />
          </mxGeometry>
        </mxCell>
        <mxCell id="aLUyHMG_e6lteH9gZZ4V-16" value="&amp;lt;&amp;lt; &lt;b&gt;domain&amp;nbsp;&lt;/b&gt;&amp;gt;&amp;gt;&lt;div&gt;&lt;br&gt;&lt;/div&gt;&lt;div&gt;&lt;b&gt;Appointment&lt;/b&gt;&lt;/div&gt;" style="shape=rect;html=1;whiteSpace=wrap;align=center;verticalAlign=top;fillColor=#FFFFFF;" parent="1" vertex="1">
          <mxGeometry x="241" y="537" width="100" height="60" as="geometry" />
        </mxCell>
        <mxCell id="aLUyHMG_e6lteH9gZZ4V-17" value="" style="endArrow=diamondThin;endFill=1;endSize=24;html=1;rounded=0;entryX=0.5;entryY=1;entryDx=0;entryDy=0;exitX=0.5;exitY=0;exitDx=0;exitDy=0;edgeStyle=orthogonalEdgeStyle;" parent="1" source="aLUyHMG_e6lteH9gZZ4V-16" target="aLUyHMG_e6lteH9gZZ4V-26" edge="1">
          <mxGeometry width="160" relative="1" as="geometry">
            <mxPoint x="280" y="303" as="sourcePoint" />
            <mxPoint x="280" y="189" as="targetPoint" />
          </mxGeometry>
        </mxCell>
        <mxCell id="aLUyHMG_e6lteH9gZZ4V-22" value="&amp;lt;&amp;lt; &lt;b&gt;interface&amp;nbsp;&lt;/b&gt;&amp;gt;&amp;gt;&lt;div&gt;&lt;br&gt;&lt;/div&gt;&lt;div&gt;&lt;b&gt;Int Register patient&lt;/b&gt;&lt;/div&gt;" style="shape=rect;html=1;whiteSpace=wrap;align=center;verticalAlign=top;fillColor=#FFFFFF;" parent="1" vertex="1">
          <mxGeometry x="-191" y="340" width="117" height="60" as="geometry" />
        </mxCell>
        <mxCell id="aLUyHMG_e6lteH9gZZ4V-23" value="" style="endArrow=diamondThin;endFill=1;endSize=24;html=1;rounded=0;entryX=0.5;entryY=1;entryDx=0;entryDy=0;exitX=0.5;exitY=0;exitDx=0;exitDy=0;edgeStyle=orthogonalEdgeStyle;" parent="1" source="aLUyHMG_e6lteH9gZZ4V-22" target="aLUyHMG_e6lteH9gZZ4V-4" edge="1">
          <mxGeometry width="160" relative="1" as="geometry">
            <mxPoint x="-201" y="186" as="sourcePoint" />
            <mxPoint x="-13" y="236" as="targetPoint" />
          </mxGeometry>
        </mxCell>
        <mxCell id="aLUyHMG_e6lteH9gZZ4V-24" value="&amp;lt;&amp;lt; &lt;b&gt;control&amp;nbsp;&lt;/b&gt;&amp;gt;&amp;gt;&lt;div&gt;&lt;br&gt;&lt;/div&gt;&lt;div&gt;&lt;b&gt;P&lt;/b&gt;&lt;b style=&quot;background-color: initial;&quot;&gt;atient controller&lt;/b&gt;&lt;/div&gt;" style="shape=rect;html=1;whiteSpace=wrap;align=center;verticalAlign=top;fillColor=#FFFFFF;" parent="1" vertex="1">
          <mxGeometry x="-66" y="340" width="106" height="60" as="geometry" />
        </mxCell>
        <mxCell id="aLUyHMG_e6lteH9gZZ4V-25" value="" style="endArrow=diamondThin;endFill=1;endSize=24;html=1;rounded=0;entryX=0.5;entryY=1;entryDx=0;entryDy=0;exitX=0.5;exitY=0;exitDx=0;exitDy=0;edgeStyle=orthogonalEdgeStyle;" parent="1" source="aLUyHMG_e6lteH9gZZ4V-24" target="aLUyHMG_e6lteH9gZZ4V-4" edge="1">
          <mxGeometry width="160" relative="1" as="geometry">
            <mxPoint x="-147" y="360" as="sourcePoint" />
            <mxPoint x="-13" y="236" as="targetPoint" />
          </mxGeometry>
        </mxCell>
        <mxCell id="aLUyHMG_e6lteH9gZZ4V-27" value="" style="endArrow=diamondThin;endFill=1;endSize=24;html=1;rounded=0;entryX=0.5;entryY=1;entryDx=0;entryDy=0;edgeStyle=orthogonalEdgeStyle;exitX=0.5;exitY=0;exitDx=0;exitDy=0;" parent="1" source="aLUyHMG_e6lteH9gZZ4V-26" target="aLUyHMG_e6lteH9gZZ4V-4" edge="1">
          <mxGeometry width="160" relative="1" as="geometry">
            <mxPoint x="476" y="469" as="sourcePoint" />
            <mxPoint x="-185" y="236" as="targetPoint" />
            <Array as="points">
              <mxPoint x="491" y="424" />
              <mxPoint x="-70" y="424" />
            </Array>
          </mxGeometry>
        </mxCell>
        <mxCell id="aLUyHMG_e6lteH9gZZ4V-29" value="&amp;lt;&amp;lt; &lt;b&gt;interface&amp;nbsp;&lt;/b&gt;&amp;gt;&amp;gt;&lt;div&gt;&lt;br&gt;&lt;/div&gt;&lt;div&gt;&lt;b&gt;Int Check-in&lt;/b&gt;&lt;/div&gt;" style="shape=rect;html=1;whiteSpace=wrap;align=center;verticalAlign=top;fillColor=#FFFFFF;" parent="1" vertex="1">
          <mxGeometry x="390" y="340" width="96" height="60" as="geometry" />
        </mxCell>
        <mxCell id="aLUyHMG_e6lteH9gZZ4V-30" value="" style="endArrow=diamondThin;endFill=1;endSize=24;html=1;rounded=0;entryX=0.5;entryY=1;entryDx=0;entryDy=0;exitX=0.5;exitY=0;exitDx=0;exitDy=0;edgeStyle=orthogonalEdgeStyle;" parent="1" source="aLUyHMG_e6lteH9gZZ4V-29" target="aLUyHMG_e6lteH9gZZ4V-6" edge="1">
          <mxGeometry width="160" relative="1" as="geometry">
            <mxPoint x="237" y="180" as="sourcePoint" />
            <mxPoint x="425" y="230" as="targetPoint" />
          </mxGeometry>
        </mxCell>
        <mxCell id="aLUyHMG_e6lteH9gZZ4V-31" value="&amp;lt;&amp;lt; &lt;b&gt;control&amp;nbsp;&lt;/b&gt;&amp;gt;&amp;gt;&lt;div&gt;&lt;br&gt;&lt;/div&gt;&lt;div&gt;&lt;b&gt;Check-in controller&lt;/b&gt;&lt;/div&gt;" style="shape=rect;html=1;whiteSpace=wrap;align=center;verticalAlign=top;fillColor=#FFFFFF;" parent="1" vertex="1">
          <mxGeometry x="496" y="340" width="122" height="60" as="geometry" />
        </mxCell>
        <mxCell id="aLUyHMG_e6lteH9gZZ4V-32" value="" style="endArrow=diamondThin;endFill=1;endSize=24;html=1;rounded=0;entryX=0.5;entryY=1;entryDx=0;entryDy=0;exitX=0.5;exitY=0;exitDx=0;exitDy=0;edgeStyle=orthogonalEdgeStyle;" parent="1" source="aLUyHMG_e6lteH9gZZ4V-31" target="aLUyHMG_e6lteH9gZZ4V-6" edge="1">
          <mxGeometry width="160" relative="1" as="geometry">
            <mxPoint x="453" y="344" as="sourcePoint" />
            <mxPoint x="453" y="230" as="targetPoint" />
          </mxGeometry>
        </mxCell>
        <mxCell id="aLUyHMG_e6lteH9gZZ4V-33" value="&amp;lt;&amp;lt;&amp;nbsp;&lt;b&gt;domain&amp;nbsp;&lt;/b&gt;&amp;gt;&amp;gt;&lt;div&gt;&lt;br&gt;&lt;/div&gt;&lt;div&gt;&lt;b&gt;Card&lt;/b&gt;&lt;/div&gt;" style="shape=rect;html=1;whiteSpace=wrap;align=center;verticalAlign=top;fillColor=#FFFFFF;" parent="1" vertex="1">
          <mxGeometry x="350" y="537" width="90" height="60" as="geometry" />
        </mxCell>
        <mxCell id="aLUyHMG_e6lteH9gZZ4V-34" value="" style="endArrow=diamondThin;endFill=1;endSize=24;html=1;rounded=0;entryX=0.5;entryY=1;entryDx=0;entryDy=0;exitX=0.5;exitY=0;exitDx=0;exitDy=0;edgeStyle=orthogonalEdgeStyle;" parent="1" source="aLUyHMG_e6lteH9gZZ4V-33" target="aLUyHMG_e6lteH9gZZ4V-26" edge="1">
          <mxGeometry width="160" relative="1" as="geometry">
            <mxPoint x="381.80999999999995" y="527.48" as="sourcePoint" />
            <mxPoint x="331" y="413" as="targetPoint" />
          </mxGeometry>
        </mxCell>
        <mxCell id="aLUyHMG_e6lteH9gZZ4V-41" value="" style="endArrow=diamondThin;endFill=1;endSize=24;html=1;rounded=0;exitX=0.5;exitY=0;exitDx=0;exitDy=0;edgeStyle=orthogonalEdgeStyle;entryX=0.5;entryY=1;entryDx=0;entryDy=0;" parent="1" source="aLUyHMG_e6lteH9gZZ4V-7" target="aLUyHMG_e6lteH9gZZ4V-2" edge="1">
          <mxGeometry width="160" relative="1" as="geometry">
            <mxPoint x="959" y="180" as="sourcePoint" />
            <mxPoint x="280" y="30" as="targetPoint" />
          </mxGeometry>
        </mxCell>
        <mxCell id="aLUyHMG_e6lteH9gZZ4V-43" value="&amp;lt;&amp;lt; &lt;b&gt;interface&amp;nbsp;&lt;/b&gt;&amp;gt;&amp;gt;&lt;div&gt;&lt;br&gt;&lt;/div&gt;&lt;div&gt;&lt;b&gt;Int List doctors&lt;/b&gt;&lt;/div&gt;" style="shape=rect;html=1;whiteSpace=wrap;align=center;verticalAlign=top;fillColor=#FFFFFF;" parent="1" vertex="1">
          <mxGeometry x="647" y="340" width="101" height="60" as="geometry" />
        </mxCell>
        <mxCell id="aLUyHMG_e6lteH9gZZ4V-44" value="" style="endArrow=diamondThin;endFill=1;endSize=24;html=1;rounded=0;entryX=0.5;entryY=1;entryDx=0;entryDy=0;exitX=0.5;exitY=0;exitDx=0;exitDy=0;edgeStyle=orthogonalEdgeStyle;" parent="1" source="aLUyHMG_e6lteH9gZZ4V-43" target="aLUyHMG_e6lteH9gZZ4V-7" edge="1">
          <mxGeometry width="160" relative="1" as="geometry">
            <mxPoint x="560" y="243" as="sourcePoint" />
            <mxPoint x="748" y="287.0000000000002" as="targetPoint" />
          </mxGeometry>
        </mxCell>
        <mxCell id="aLUyHMG_e6lteH9gZZ4V-45" value="&amp;lt;&amp;lt; &lt;b&gt;control&amp;nbsp;&lt;/b&gt;&amp;gt;&amp;gt;&lt;div&gt;&lt;br&gt;&lt;/div&gt;&lt;div&gt;&lt;b style=&quot;background-color: initial;&quot;&gt;Doctor controller&lt;/b&gt;&lt;/div&gt;" style="shape=rect;html=1;whiteSpace=wrap;align=center;verticalAlign=top;fillColor=#FFFFFF;" parent="1" vertex="1">
          <mxGeometry x="757" y="340" width="105" height="60" as="geometry" />
        </mxCell>
        <mxCell id="aLUyHMG_e6lteH9gZZ4V-46" value="" style="endArrow=diamondThin;endFill=1;endSize=24;html=1;rounded=0;entryX=0.5;entryY=1;entryDx=0;entryDy=0;exitX=0.5;exitY=0;exitDx=0;exitDy=0;edgeStyle=orthogonalEdgeStyle;" parent="1" source="aLUyHMG_e6lteH9gZZ4V-45" target="aLUyHMG_e6lteH9gZZ4V-7" edge="1">
          <mxGeometry width="160" relative="1" as="geometry">
            <mxPoint x="614" y="417" as="sourcePoint" />
            <mxPoint x="748" y="287.0000000000002" as="targetPoint" />
          </mxGeometry>
        </mxCell>
        <mxCell id="aLUyHMG_e6lteH9gZZ4V-49" value="&amp;lt;&amp;lt; &lt;b&gt;interface&amp;nbsp;&lt;/b&gt;&amp;gt;&amp;gt;&lt;div&gt;&lt;br&gt;&lt;/div&gt;&lt;div&gt;&lt;b&gt;Int Appointments&lt;/b&gt;&lt;/div&gt;" style="shape=rect;html=1;whiteSpace=wrap;align=center;verticalAlign=top;fillColor=#FFFFFF;" parent="1" vertex="1">
          <mxGeometry x="881" y="340" width="113" height="60" as="geometry" />
        </mxCell>
        <mxCell id="aLUyHMG_e6lteH9gZZ4V-50" value="" style="endArrow=diamondThin;endFill=1;endSize=24;html=1;rounded=0;entryX=0.5;entryY=1;entryDx=0;entryDy=0;exitX=0.5;exitY=0;exitDx=0;exitDy=0;edgeStyle=orthogonalEdgeStyle;" parent="1" source="aLUyHMG_e6lteH9gZZ4V-49" target="aLUyHMG_e6lteH9gZZ4V-8" edge="1">
          <mxGeometry width="160" relative="1" as="geometry">
            <mxPoint x="935" y="254" as="sourcePoint" />
            <mxPoint x="1123" y="238" as="targetPoint" />
          </mxGeometry>
        </mxCell>
        <mxCell id="aLUyHMG_e6lteH9gZZ4V-51" value="&amp;lt;&amp;lt; &lt;b&gt;control&amp;nbsp;&lt;/b&gt;&amp;gt;&amp;gt;&lt;div&gt;&lt;br&gt;&lt;/div&gt;&lt;div&gt;&lt;b style=&quot;background-color: initial;&quot;&gt;Appointments controller&lt;/b&gt;&lt;/div&gt;" style="shape=rect;html=1;whiteSpace=wrap;align=center;verticalAlign=top;fillColor=#FFFFFF;" parent="1" vertex="1">
          <mxGeometry x="1002" y="340" width="147" height="60" as="geometry" />
        </mxCell>
        <mxCell id="aLUyHMG_e6lteH9gZZ4V-52" value="" style="endArrow=diamondThin;endFill=1;endSize=24;html=1;rounded=0;entryX=0.5;entryY=1;entryDx=0;entryDy=0;exitX=0.5;exitY=0;exitDx=0;exitDy=0;edgeStyle=orthogonalEdgeStyle;" parent="1" source="aLUyHMG_e6lteH9gZZ4V-51" target="aLUyHMG_e6lteH9gZZ4V-8" edge="1">
          <mxGeometry width="160" relative="1" as="geometry">
            <mxPoint x="989" y="428" as="sourcePoint" />
            <mxPoint x="1123" y="238" as="targetPoint" />
          </mxGeometry>
        </mxCell>
        <mxCell id="aLUyHMG_e6lteH9gZZ4V-55" value="" style="endArrow=diamondThin;endFill=1;endSize=24;html=1;rounded=0;exitX=0.5;exitY=0;exitDx=0;exitDy=0;edgeStyle=orthogonalEdgeStyle;entryX=0.5;entryY=1;entryDx=0;entryDy=0;" parent="1" source="aLUyHMG_e6lteH9gZZ4V-8" target="aLUyHMG_e6lteH9gZZ4V-2" edge="1">
          <mxGeometry width="160" relative="1" as="geometry">
            <mxPoint x="1580" y="180" as="sourcePoint" />
            <mxPoint x="280" y="30" as="targetPoint" />
          </mxGeometry>
        </mxCell>
        <mxCell id="aLUyHMG_e6lteH9gZZ4V-56" value="&amp;lt;&amp;lt; &lt;b&gt;interface&amp;nbsp;&lt;/b&gt;&amp;gt;&amp;gt;&lt;div&gt;&lt;br&gt;&lt;/div&gt;&lt;div&gt;&lt;b&gt;Int Review doctor&lt;/b&gt;&lt;/div&gt;" style="shape=rect;html=1;whiteSpace=wrap;align=center;verticalAlign=top;fillColor=#FFFFFF;" parent="1" vertex="1">
          <mxGeometry x="1156" y="340" width="113" height="60" as="geometry" />
        </mxCell>
        <mxCell id="aLUyHMG_e6lteH9gZZ4V-57" value="" style="endArrow=diamondThin;endFill=1;endSize=24;html=1;rounded=0;entryX=0.5;entryY=1;entryDx=0;entryDy=0;exitX=0.5;exitY=0;exitDx=0;exitDy=0;edgeStyle=orthogonalEdgeStyle;" parent="1" source="aLUyHMG_e6lteH9gZZ4V-56" target="aLUyHMG_e6lteH9gZZ4V-9" edge="1">
          <mxGeometry width="160" relative="1" as="geometry">
            <mxPoint x="1388" y="259" as="sourcePoint" />
            <mxPoint x="1576" y="235" as="targetPoint" />
          </mxGeometry>
        </mxCell>
        <mxCell id="aLUyHMG_e6lteH9gZZ4V-58" value="&amp;lt;&amp;lt; &lt;b&gt;control&amp;nbsp;&lt;/b&gt;&amp;gt;&amp;gt;&lt;div&gt;&lt;br&gt;&lt;/div&gt;&lt;div&gt;&lt;b style=&quot;background-color: initial;&quot;&gt;Reviews controller&lt;/b&gt;&lt;/div&gt;" style="shape=rect;html=1;whiteSpace=wrap;align=center;verticalAlign=top;fillColor=#FFFFFF;" parent="1" vertex="1">
          <mxGeometry x="1278" y="340" width="112" height="60" as="geometry" />
        </mxCell>
        <mxCell id="aLUyHMG_e6lteH9gZZ4V-59" value="" style="endArrow=diamondThin;endFill=1;endSize=24;html=1;rounded=0;entryX=0.5;entryY=1;entryDx=0;entryDy=0;exitX=0.5;exitY=0;exitDx=0;exitDy=0;edgeStyle=orthogonalEdgeStyle;" parent="1" source="aLUyHMG_e6lteH9gZZ4V-58" target="aLUyHMG_e6lteH9gZZ4V-9" edge="1">
          <mxGeometry width="160" relative="1" as="geometry">
            <mxPoint x="1442" y="433" as="sourcePoint" />
            <mxPoint x="1576" y="235" as="targetPoint" />
          </mxGeometry>
        </mxCell>
        <mxCell id="7oc2cFxqJsQYQ-ujxM1P-1" value="&amp;lt;&amp;lt;&amp;nbsp;&lt;b&gt;domain&amp;nbsp;&lt;/b&gt;&amp;gt;&amp;gt;&lt;div&gt;&lt;br&gt;&lt;/div&gt;&lt;div&gt;&lt;b&gt;Ticket&lt;/b&gt;&lt;/div&gt;" style="shape=rect;html=1;whiteSpace=wrap;align=center;verticalAlign=top;fillColor=#FFFFFF;" parent="1" vertex="1">
          <mxGeometry x="450" y="537" width="82" height="60" as="geometry" />
        </mxCell>
        <mxCell id="7oc2cFxqJsQYQ-ujxM1P-2" value="" style="endArrow=diamondThin;endFill=1;endSize=24;html=1;rounded=0;entryX=0.5;entryY=1;entryDx=0;entryDy=0;exitX=0.5;exitY=0;exitDx=0;exitDy=0;edgeStyle=orthogonalEdgeStyle;" parent="1" source="7oc2cFxqJsQYQ-ujxM1P-1" target="aLUyHMG_e6lteH9gZZ4V-26" edge="1">
          <mxGeometry width="160" relative="1" as="geometry">
            <mxPoint x="419" y="537" as="sourcePoint" />
            <mxPoint x="331" y="413" as="targetPoint" />
          </mxGeometry>
        </mxCell>
        <mxCell id="1IXklevBIiizkIeRK9KI-1" value="&amp;lt;&amp;lt; &lt;b&gt;domain&amp;nbsp;&lt;/b&gt;&amp;gt;&amp;gt;&lt;div&gt;&lt;br&gt;&lt;/div&gt;&lt;div&gt;&lt;b&gt;Patient&lt;/b&gt;&lt;br&gt;&lt;/div&gt;" style="shape=rect;html=1;whiteSpace=wrap;align=center;verticalAlign=top;fillColor=#FFFFFF;" parent="1" vertex="1">
          <mxGeometry x="140" y="537" width="92" height="60" as="geometry" />
        </mxCell>
        <mxCell id="1IXklevBIiizkIeRK9KI-2" value="" style="endArrow=diamondThin;endFill=1;endSize=24;html=1;rounded=0;entryX=0.5;entryY=1;entryDx=0;entryDy=0;exitX=0.5;exitY=0;exitDx=0;exitDy=0;edgeStyle=orthogonalEdgeStyle;" parent="1" source="1IXklevBIiizkIeRK9KI-1" target="aLUyHMG_e6lteH9gZZ4V-26" edge="1">
          <mxGeometry width="160" relative="1" as="geometry">
            <mxPoint x="-137" y="463" as="sourcePoint" />
            <mxPoint x="-257" y="391" as="targetPoint" />
          </mxGeometry>
        </mxCell>
        <mxCell id="-DY5QzfzJTE-6jWpiXuq-1" value="&amp;lt;&amp;lt;&amp;nbsp;&lt;b&gt;domain&amp;nbsp;&lt;/b&gt;&amp;gt;&amp;gt;&lt;div&gt;&lt;br&gt;&lt;/div&gt;&lt;div&gt;&lt;b&gt;Doctor&lt;/b&gt;&lt;br&gt;&lt;/div&gt;" style="shape=rect;html=1;whiteSpace=wrap;align=center;verticalAlign=top;fillColor=#FFFFFF;" parent="1" vertex="1">
          <mxGeometry x="543" y="537" width="94" height="60" as="geometry" />
        </mxCell>
        <mxCell id="-DY5QzfzJTE-6jWpiXuq-2" value="" style="endArrow=diamondThin;endFill=1;endSize=24;html=1;rounded=0;entryX=0.5;entryY=1;entryDx=0;entryDy=0;exitX=0.5;exitY=0;exitDx=0;exitDy=0;edgeStyle=orthogonalEdgeStyle;" parent="1" source="-DY5QzfzJTE-6jWpiXuq-1" target="aLUyHMG_e6lteH9gZZ4V-26" edge="1">
          <mxGeometry width="160" relative="1" as="geometry">
            <mxPoint x="345" y="472" as="sourcePoint" />
            <mxPoint x="-63" y="359" as="targetPoint" />
          </mxGeometry>
        </mxCell>
        <mxCell id="-DY5QzfzJTE-6jWpiXuq-6" value="" style="endArrow=diamondThin;endFill=1;endSize=24;html=1;rounded=0;exitX=0.5;exitY=0;exitDx=0;exitDy=0;entryX=0.5;entryY=1;entryDx=0;entryDy=0;edgeStyle=orthogonalEdgeStyle;" parent="1" source="-DY5QzfzJTE-6jWpiXuq-7" target="aLUyHMG_e6lteH9gZZ4V-26" edge="1">
          <mxGeometry width="160" relative="1" as="geometry">
            <mxPoint x="911" y="587" as="sourcePoint" />
            <mxPoint x="901" y="384" as="targetPoint" />
          </mxGeometry>
        </mxCell>
        <mxCell id="-DY5QzfzJTE-6jWpiXuq-7" value="&amp;lt;&amp;lt; &lt;b&gt;data&amp;nbsp;&lt;/b&gt;&amp;gt;&amp;gt;&lt;div&gt;&lt;br&gt;&lt;/div&gt;&lt;div&gt;&lt;b&gt;Review&lt;/b&gt;&lt;/div&gt;" style="shape=rect;html=1;whiteSpace=wrap;align=center;verticalAlign=top;fillColor=#FFFFFF;" parent="1" vertex="1">
          <mxGeometry x="751" y="537" width="80" height="60" as="geometry" />
        </mxCell>
        <mxCell id="-DY5QzfzJTE-6jWpiXuq-8" value="" style="endArrow=diamondThin;endFill=1;endSize=24;html=1;rounded=0;entryX=0.5;entryY=1;entryDx=0;entryDy=0;exitX=0.5;exitY=0;exitDx=0;exitDy=0;edgeStyle=orthogonalEdgeStyle;" parent="1" source="-DY5QzfzJTE-6jWpiXuq-9" target="aLUyHMG_e6lteH9gZZ4V-26" edge="1">
          <mxGeometry width="160" relative="1" as="geometry">
            <mxPoint x="377" y="582" as="sourcePoint" />
            <mxPoint x="367" y="384" as="targetPoint" />
          </mxGeometry>
        </mxCell>
        <mxCell id="-DY5QzfzJTE-6jWpiXuq-9" value="&amp;lt;&amp;lt;&amp;nbsp;&lt;b&gt;domain&amp;nbsp;&lt;/b&gt;&amp;gt;&amp;gt;&lt;div&gt;&lt;br&gt;&lt;/div&gt;&lt;div&gt;&lt;b&gt;Appointment&lt;/b&gt;&lt;/div&gt;" style="shape=rect;html=1;whiteSpace=wrap;align=center;verticalAlign=top;fillColor=#FFFFFF;" parent="1" vertex="1">
          <mxGeometry x="649" y="537" width="92" height="60" as="geometry" />
        </mxCell>
        <mxCell id="-DY5QzfzJTE-6jWpiXuq-10" value="" style="endArrow=diamondThin;endFill=1;endSize=24;html=1;rounded=0;exitX=0.5;exitY=0;exitDx=0;exitDy=0;edgeStyle=orthogonalEdgeStyle;entryX=0.5;entryY=1;entryDx=0;entryDy=0;" parent="1" source="aLUyHMG_e6lteH9gZZ4V-9" target="aLUyHMG_e6lteH9gZZ4V-2" edge="1">
          <mxGeometry width="160" relative="1" as="geometry">
            <mxPoint x="1622" y="178" as="sourcePoint" />
            <mxPoint x="1513" y="30" as="targetPoint" />
          </mxGeometry>
        </mxCell>
        <mxCell id="-DY5QzfzJTE-6jWpiXuq-11" value="" style="endArrow=diamondThin;endFill=1;endSize=24;html=1;rounded=0;entryX=0.5;entryY=1;entryDx=0;entryDy=0;edgeStyle=orthogonalEdgeStyle;exitX=0.5;exitY=0;exitDx=0;exitDy=0;" parent="1" source="aLUyHMG_e6lteH9gZZ4V-26" target="aLUyHMG_e6lteH9gZZ4V-5" edge="1">
          <mxGeometry width="160" relative="1" as="geometry">
            <mxPoint x="453" y="459" as="sourcePoint" />
            <mxPoint x="-112" y="227" as="targetPoint" />
            <Array as="points">
              <mxPoint x="491" y="424" />
              <mxPoint x="222" y="424" />
            </Array>
          </mxGeometry>
        </mxCell>
        <mxCell id="-DY5QzfzJTE-6jWpiXuq-12" value="" style="endArrow=diamondThin;endFill=1;endSize=24;html=1;rounded=0;entryX=0.5;entryY=1;entryDx=0;entryDy=0;exitX=0.5;exitY=0;exitDx=0;exitDy=0;edgeStyle=orthogonalEdgeStyle;" parent="1" source="aLUyHMG_e6lteH9gZZ4V-26" target="aLUyHMG_e6lteH9gZZ4V-6" edge="1">
          <mxGeometry width="160" relative="1" as="geometry">
            <mxPoint x="-120" y="280" as="sourcePoint" />
            <mxPoint x="223" y="170" as="targetPoint" />
            <Array as="points">
              <mxPoint x="491" y="472" />
              <mxPoint x="491" y="472" />
            </Array>
          </mxGeometry>
        </mxCell>
        <mxCell id="-DY5QzfzJTE-6jWpiXuq-13" value="" style="endArrow=diamondThin;endFill=1;endSize=24;html=1;rounded=0;exitX=0.5;exitY=0;exitDx=0;exitDy=0;edgeStyle=orthogonalEdgeStyle;entryX=0.5;entryY=1;entryDx=0;entryDy=0;" parent="1" source="aLUyHMG_e6lteH9gZZ4V-26" target="aLUyHMG_e6lteH9gZZ4V-7" edge="1">
          <mxGeometry width="160" relative="1" as="geometry">
            <mxPoint x="-73" y="340" as="sourcePoint" />
            <mxPoint x="890" y="259" as="targetPoint" />
            <Array as="points">
              <mxPoint x="491" y="424" />
              <mxPoint x="752" y="424" />
            </Array>
          </mxGeometry>
        </mxCell>
        <mxCell id="-DY5QzfzJTE-6jWpiXuq-14" value="" style="endArrow=diamondThin;endFill=1;endSize=24;html=1;rounded=0;exitX=0.5;exitY=0;exitDx=0;exitDy=0;edgeStyle=orthogonalEdgeStyle;entryX=0.5;entryY=1;entryDx=0;entryDy=0;" parent="1" source="aLUyHMG_e6lteH9gZZ4V-26" target="aLUyHMG_e6lteH9gZZ4V-7" edge="1">
          <mxGeometry width="160" relative="1" as="geometry">
            <mxPoint x="55" y="340" as="sourcePoint" />
            <mxPoint x="1148" y="230" as="targetPoint" />
            <Array as="points">
              <mxPoint x="491" y="424" />
              <mxPoint x="752" y="424" />
            </Array>
          </mxGeometry>
        </mxCell>
        <mxCell id="-DY5QzfzJTE-6jWpiXuq-15" value="" style="endArrow=diamondThin;endFill=1;endSize=24;html=1;rounded=0;exitX=0.5;exitY=0;exitDx=0;exitDy=0;edgeStyle=orthogonalEdgeStyle;entryX=0.5;entryY=1;entryDx=0;entryDy=0;" parent="1" source="aLUyHMG_e6lteH9gZZ4V-26" target="aLUyHMG_e6lteH9gZZ4V-8" edge="1">
          <mxGeometry width="160" relative="1" as="geometry">
            <mxPoint x="160" y="349" as="sourcePoint" />
            <mxPoint x="1253" y="239" as="targetPoint" />
            <Array as="points">
              <mxPoint x="491" y="424" />
              <mxPoint x="998" y="424" />
            </Array>
          </mxGeometry>
        </mxCell>
        <mxCell id="-DY5QzfzJTE-6jWpiXuq-16" value="" style="endArrow=diamondThin;endFill=1;endSize=24;html=1;rounded=0;edgeStyle=orthogonalEdgeStyle;entryX=0.5;entryY=1;entryDx=0;entryDy=0;" parent="1" source="aLUyHMG_e6lteH9gZZ4V-26" target="aLUyHMG_e6lteH9gZZ4V-9" edge="1">
          <mxGeometry width="160" relative="1" as="geometry">
            <mxPoint x="107" y="350" as="sourcePoint" />
            <mxPoint x="1550" y="240" as="targetPoint" />
            <Array as="points">
              <mxPoint x="491" y="424" />
              <mxPoint x="1274" y="424" />
            </Array>
          </mxGeometry>
        </mxCell>
        <mxCell id="aLUyHMG_e6lteH9gZZ4V-26" value="&amp;lt;&amp;lt; &lt;b&gt;database&amp;nbsp;&lt;/b&gt;&amp;gt;&amp;gt;&lt;div&gt;&lt;br&gt;&lt;/div&gt;&lt;div&gt;&lt;b&gt;MyclinicData&lt;/b&gt;&lt;/div&gt;" style="shape=rect;html=1;whiteSpace=wrap;align=center;verticalAlign=top;fillColor=#FFFFFF;" parent="1" vertex="1">
          <mxGeometry x="445" y="441" width="92" height="60" as="geometry" />
        </mxCell>
      </root>
    </mxGraphModel>
  </diagram>
</mxfile>
